# Blender v2.83.10 OBJ File: '3dgridwip.blend'
# www.blender.org
mtllib 3dgrid.mtl
o grid
v -195.621307 -219.909042 395.925140
v -195.621307 -180.784775 395.925140
v -195.621307 -219.909042 4.682526
v -195.621307 -180.784775 4.682526
v 195.621307 -219.909042 395.925140
v 195.621307 -180.784775 395.925140
v 195.621307 -219.909042 4.682526
v 195.621307 -180.784775 4.682526
v -195.621307 171.333572 395.925140
v -195.621307 210.457840 395.925140
v -195.621307 171.333572 4.682526
v -195.621307 210.457840 4.682526
v 195.621307 171.333572 395.925140
v 195.621307 210.457840 395.925140
v 195.621307 171.333572 4.682526
v 195.621307 210.457840 4.682526
v 215.183426 -200.346909 395.925140
v 176.059158 -200.346909 395.925140
v 215.183426 -200.346909 4.682526
v 176.059158 -200.346909 4.682526
v 215.183472 190.895706 395.925140
v 176.059189 190.895706 395.925140
v 215.183472 190.895706 4.682526
v 176.059189 190.895706 4.682526
v -176.059189 -200.346909 395.925140
v -215.183472 -200.346909 395.925140
v -176.059189 -200.346909 4.682526
v -215.183472 -200.346909 4.682526
v -176.059158 190.895706 395.925140
v -215.183426 190.895706 395.925140
v -176.059158 190.895706 4.682526
v -215.183426 190.895706 4.682526
v 195.621292 -200.346924 376.363037
v 195.621292 -200.346924 415.487305
v -195.621338 -200.346893 376.362976
v -195.621338 -200.346893 415.487244
v 195.621338 190.895706 376.363037
v 195.621338 190.895706 415.487305
v -195.621292 190.895706 376.362976
v -195.621292 190.895706 415.487244
vt 0.954546 0.000000
vt 0.954546 0.090909
vt 0.954546 0.090909
vt 0.954546 0.000000
vt 0.680891 0.351613
vt 0.680891 0.387269
vt 0.324321 0.387269
vt 0.324321 0.351613
vt 0.045455 0.000000
vt 0.045455 0.090909
vt 0.045455 0.090909
vt 0.045455 0.000000
vt 0.045455 0.045455
vt 0.954546 0.045455
vt 0.954546 0.954545
vt 0.045455 0.954545
vt 0.954546 0.909091
vt 0.954546 1.000000
vt 0.954546 1.000000
vt 0.954546 0.909091
vt 0.680891 0.708182
vt 0.680891 0.743839
vt 0.324321 0.743839
vt 0.324321 0.708182
vt 0.045455 0.909091
vt 0.045455 1.000000
vt 0.045455 1.000000
vt 0.045455 0.909091
vt 0.954546 0.045455
vt 0.045455 0.045455
vt 0.045455 0.954545
vt 0.954546 0.954545
vt 0.680891 0.743839
vt 0.324321 0.743839
vt 0.000000 0.045455
vt 0.090909 0.045455
vt 0.090909 0.045455
vt 0.000000 0.045455
vt 0.306493 0.369441
vt 0.342150 0.369441
vt 0.342150 0.726011
vt 0.306493 0.726011
vt 0.000000 0.954545
vt 0.090909 0.954545
vt 0.090909 0.954545
vt 0.000000 0.954545
vt 0.045455 0.045455
vt 0.954546 0.045455
vt 0.954546 0.954545
vt 0.045455 0.954545
vt 0.909091 0.045455
vt 1.000000 0.045455
vt 1.000000 0.045455
vt 0.909091 0.045455
vt 0.663062 0.369441
vt 0.698719 0.369441
vt 0.698719 0.726011
vt 0.663062 0.726011
vt 0.909091 0.954545
vt 1.000000 0.954545
vt 1.000000 0.954545
vt 0.909091 0.954545
vt 0.954546 0.045455
vt 0.954546 0.954545
vt 0.045455 0.954545
vt 0.045455 0.045455
vt 0.000000 0.909091
vt 0.045455 0.045455
vt 0.045455 0.045455
vt 0.954546 0.045455
vt 0.954546 0.045455
vt 0.954546 0.954545
vt 0.954546 0.954545
vt 0.045455 0.954545
vt 0.045455 0.954545
vn -1.0000 0.0000 0.0000
vn 0.0000 0.0000 -1.0000
vn 1.0000 0.0000 0.0000
vn 0.0000 0.0000 1.0000
vn 0.0000 -1.0000 0.0000
vn 0.0000 1.0000 0.0000
usemtl grid
s off
f 1/1/1 2/2/1 4/3/1 3/4/1
f 3/5/2 4/6/2 8/7/2 7/8/2
f 7/9/3 8/10/3 6/11/3 5/12/3
f 5/12/4 6/11/4 2/2/4 1/1/4
f 3/4/5 7/9/5 5/12/5 1/1/5
f 8/13/6 4/14/6 2/15/6 6/16/6
f 9/17/1 10/18/1 12/19/1 11/20/1
f 11/21/2 12/22/2 16/23/2 15/24/2
f 15/25/3 16/26/3 14/27/3 13/28/3
f 13/28/4 14/27/4 10/18/4 9/17/4
f 11/29/5 15/30/5 13/31/5 9/32/5
f 16/23/6 12/22/6 10/33/6 14/34/6
f 17/35/5 18/36/5 20/37/5 19/38/5
f 19/39/2 20/40/2 24/41/2 23/42/2
f 23/43/6 24/44/6 22/45/6 21/46/6
f 21/46/4 22/45/4 18/36/4 17/35/4
f 19/38/3 23/43/3 21/46/3 17/35/3
f 24/47/1 20/48/1 18/49/1 22/50/1
f 25/51/5 26/52/5 28/53/5 27/54/5
f 27/55/2 28/56/2 32/57/2 31/58/2
f 31/59/6 32/60/6 30/61/6 29/62/6
f 29/62/4 30/61/4 26/52/4 25/51/4
f 27/63/3 31/64/3 29/65/3 25/66/3
f 32/67/1 28/53/1 26/52/1 30/61/1
f 33/68/5 34/69/5 36/70/5 35/71/5
f 35/71/1 36/70/1 40/72/1 39/73/1
f 39/73/6 40/72/6 38/74/6 37/75/6
f 37/75/3 38/74/3 34/69/3 33/68/3
f 35/71/2 39/73/2 37/75/2 33/68/2
f 40/72/4 36/70/4 34/69/4 38/74/4
